[img]http://imageshack.us/scaled/landing/132/ibrg.jpg[/img]


Complete name : What most schools don't teach - Motivational and Inspirational Video - Shrivastava - IBRG.MP4
Format : MPEG-4
Format profile : Base Media / Version 2
Codec ID : mp42
File size : 57.8 MiB
Duration : 5mn 43s
Overall bit rate : 1 411 Kbps
Encoded date : UTC 2013-02-23 18:23:30
Tagged date : UTC 2013-02-23 18:23:30
gsst : 0
gstd : 343746
gssd : B67032044HH1362459286739454
gshh :

Video
ID : 1
Format : AVC
Format/Info : Advanced Video Codec
Format profile : High@L3.1
Format settings, CABAC : Yes
Format settings, ReFrames : 1 frame
Codec ID : avc1
Codec ID/Info : Advanced Video Coding
Duration : 5mn 43s
Bit rate mode : Variable
Bit rate : 1 217 Kbps
Maximum bit rate : 6 458 Kbps
Width : 1 280 pixels
Height : 720 pixels
Display aspect ratio : 16:9
Frame rate mode : Constant
Frame rate : 23.976 fps
Color space : YUV
Chroma subsampling : 4:2:0
Bit depth : 8 bits
Scan type : Progressive
Bits/(Pixel*Frame) : 0.055
Stream size : 49.8 MiB (86%)
Tagged date : UTC 2013-02-23 18:23:40

Audio
ID : 2
Format : AAC
Format/Info : Advanced Audio Codec
Format profile : LC
Codec ID : 40
Duration : 5mn 43s
Bit rate mode : Variable
Bit rate : 192 Kbps
Maximum bit rate : 201 Kbps
Channel(s) : 2 channels
Channel positions : Front: L R
Sampling rate : 44.1 KHz
Compression mode : Lossy
Stream size : 7.86 MiB (14%)
